<svg width="43" height="43" viewBox="0 0 43 43" fill="none" xmlns="http://www.w3.org/2000/svg">
<mask id="mask0_2006_198" style="mask-type:alpha" maskUnits="userSpaceOnUse" x="0" y="0" width="43" height="43">
<path d="M0 0H42.7291V42.7291H14.6179C6.54464 42.7291 0 36.1845 0 28.1113V0Z" fill="black"/>
</mask>
<g mask="url(#mask0_2006_198)">
<path d="M0 0H42.7291V42.7291H14.6179C6.54464 42.7291 0 36.1845 0 28.1113V0Z" fill="black"/>
<path d="M37.0245 23.2233C37.6371 22.389 37.4573 21.2161 36.623 20.6035C35.7887 19.991 34.6157 20.1708 34.0032 21.0051L35.5139 22.1142L37.0245 23.2233ZM34.3744 36.7188L35.876 37.8402L34.3744 36.7188ZM33.7405 36.6654L32.0725 37.5198L33.7405 36.6654ZM34.0286 37.0343L33.8713 38.9018L34.0286 37.0343ZM50.6084 14.8839L52.4773 15.024L50.6084 14.8839ZM50.535 15.0801L52.0365 16.2015L50.535 15.0801ZM50.593 14.99L48.8378 14.333L50.593 14.99ZM15.9162 37.0056L14.0466 37.1345L15.9162 37.0056ZM16.0973 37.3012L15.1331 38.9082L16.0973 37.3012ZM15.9501 37.1881L14.352 38.167L15.9501 37.1881ZM15.1022 26.2377L16.5409 25.0367L15.1022 26.2377ZM15.1884 26.4521L17.0581 26.3231L15.1884 26.4521ZM15.1712 26.3345L16.91 25.6355L15.1712 26.3345ZM6.58122 15.3351L7.48948 16.9744L6.58122 15.3351ZM6.28944 15.5745L8.13167 15.9186L6.28944 15.5745ZM50.8544 4.0399L51.6859 5.71942L50.8544 4.0399ZM51.3944 4.40384L53.2633 4.544L51.3944 4.40384ZM51.3369 3.90657L50.2896 5.46072L51.3369 3.90657ZM32.2727 13.2929L30.7271 12.233L32.2727 13.2929ZM32.4155 13.1689L31.584 11.4894L32.4155 13.1689ZM32.332 13.217L31.1038 11.8016L32.332 13.217ZM23.1667 25.4408L21.3243 25.7836L23.1667 25.4408ZM23.395 26.0349L23.783 24.2014L23.395 26.0349ZM30.1846 29.7229L28.5166 30.5773L30.1846 29.7229ZM30.216 29.3302L28.7054 28.2211L30.216 29.3302ZM30.1118 29.5195L28.2437 29.3698L30.1118 29.5195ZM20.8695 14.1751L21.4368 12.3889L20.8695 14.1751ZM21.1245 14.4638L22.967 14.121L21.1245 14.4638ZM21.0602 14.2636L22.4647 13.0228L21.0602 14.2636ZM13.2724 11.7619L12.7051 13.5481L13.2724 11.7619ZM12.9773 11.7913L13.8856 13.4306L12.9773 11.7913ZM13.1202 11.7296L12.9346 9.86473L13.1202 11.7296ZM13.2724 11.7619L12.7051 13.5481L20.3021 15.9612L20.8695 14.1751L21.4368 12.3889L13.8398 9.97577L13.2724 11.7619ZM21.1245 14.4638L19.282 14.8065L21.3243 25.7836L23.1667 25.4408L25.0092 25.098L22.967 14.121L21.1245 14.4638ZM23.8443 25.5842L25.39 26.6441L33.8183 14.3527L32.2727 13.2929L30.7271 12.233L22.2987 24.5244L23.8443 25.5842ZM32.4155 13.1689L33.247 14.8485L51.6859 5.71942L50.8544 4.0399L50.0228 2.36039L31.584 11.4894L32.4155 13.1689ZM12.9773 11.7913L12.0691 10.152L5.67297 13.6958L6.58122 15.3351L7.48948 16.9744L13.8856 13.4306L12.9773 11.7913ZM6.47514 15.9031L5.03645 17.1041L13.6635 27.4386L15.1022 26.2377L16.5409 25.0367L7.91382 14.7021L6.47514 15.9031ZM15.1884 26.4521L13.3188 26.581L14.0466 37.1345L15.9162 37.0056L17.7859 36.8766L17.0581 26.3231L15.1884 26.4521ZM16.0973 37.3012L15.1331 38.9082L28.0841 46.6788L29.0483 45.0717L30.0125 43.4647L17.0615 35.6942L16.0973 37.3012ZM51.3944 4.40384L49.5256 4.26368L48.7396 14.7437L50.6084 14.8839L52.4773 15.024L53.2633 4.544L51.3944 4.40384ZM50.535 15.0801L49.0334 13.9587L32.8729 35.5974L34.3744 36.7188L35.876 37.8402L52.0365 16.2015L50.535 15.0801ZM33.7405 36.6654L35.4085 35.8111L31.8526 28.8686L30.1846 29.7229L28.5166 30.5773L32.0725 37.5198L33.7405 36.6654ZM30.216 29.3302L31.7267 30.4393L37.0245 23.2233L35.5139 22.1142L34.0032 21.0051L28.7054 28.2211L30.216 29.3302ZM34.3744 36.7188L32.8729 35.5974C32.828 35.6575 32.809 35.6827 32.7959 35.6993C32.781 35.7182 32.8067 35.6833 32.8593 35.6311C32.9087 35.582 33.046 35.4522 33.2683 35.3415C33.5212 35.2156 33.8382 35.1375 34.186 35.1668L34.0286 37.0343L33.8713 38.9018C34.7423 38.9752 35.3045 38.4853 35.5004 38.2907C35.676 38.1163 35.8327 37.8981 35.876 37.8402L34.3744 36.7188ZM33.7405 36.6654L32.0725 37.5198C32.1054 37.5841 32.2234 37.8254 32.3673 38.0267C32.528 38.2513 33.0002 38.8284 33.8713 38.9018L34.0286 37.0343L34.186 35.1668C34.5338 35.1961 34.8332 35.3261 35.0614 35.4925C35.2621 35.6389 35.3757 35.7899 35.4163 35.8466C35.4593 35.9068 35.4789 35.9455 35.4673 35.9244C35.4572 35.9058 35.4427 35.8778 35.4085 35.8111L33.7405 36.6654ZM50.6084 14.8839L48.7396 14.7437C48.7383 14.7602 48.7383 14.7608 48.7384 14.7589C48.7386 14.7565 48.7405 14.7348 48.7445 14.7038C48.7536 14.6348 48.7762 14.4976 48.8378 14.333L50.593 14.99L52.3481 15.6469C52.4191 15.4573 52.4474 15.294 52.4608 15.1917C52.4714 15.1115 52.4767 15.0313 52.4773 15.024L50.6084 14.8839ZM50.535 15.0801L52.0365 16.2015C52.0409 16.1957 52.0895 16.1316 52.1342 16.0642C52.1913 15.9783 52.2771 15.8366 52.3481 15.6469L50.593 14.99L48.8378 14.333C48.8994 14.1684 48.9725 14.05 49.011 13.992C49.0283 13.966 49.0411 13.9484 49.0425 13.9465C49.0437 13.9449 49.0433 13.9455 49.0334 13.9587L50.535 15.0801ZM15.9162 37.0056L14.0466 37.1345C14.0476 37.1488 14.0551 37.2839 14.0765 37.4166C14.104 37.5868 14.1687 37.8677 14.352 38.167L15.9501 37.1881L17.5482 36.2091C17.7075 36.4692 17.7586 36.7067 17.7768 36.8193C17.7849 36.8696 17.7878 36.9047 17.788 36.9066C17.7881 36.9081 17.7879 36.9053 17.7859 36.8766L15.9162 37.0056ZM16.0973 37.3012L17.0615 35.6942C17.0369 35.6794 17.0345 35.6778 17.0358 35.6787C17.0374 35.6797 17.0673 35.6982 17.1085 35.7283C17.2005 35.7957 17.3889 35.949 17.5482 36.2091L15.9501 37.1881L14.352 38.167C14.5354 38.4663 14.7562 38.6516 14.8954 38.7534C15.0039 38.8327 15.1208 38.9008 15.1331 38.9082L16.0973 37.3012ZM15.1022 26.2377L13.6635 27.4386C13.6753 27.4527 13.6758 27.4534 13.6745 27.4518C13.673 27.4499 13.6578 27.4314 13.6374 27.4036C13.592 27.3418 13.505 27.2143 13.4323 27.0335L15.1712 26.3345L16.91 25.6355C16.8263 25.4271 16.7241 25.2743 16.6566 25.1826C16.6037 25.1107 16.5462 25.0429 16.5409 25.0367L15.1022 26.2377ZM15.1884 26.4521L17.0581 26.3231C17.0575 26.315 17.0522 26.2262 17.0406 26.1377C17.0258 26.0248 16.9937 25.8438 16.91 25.6355L15.1712 26.3345L13.4323 27.0335C13.3596 26.8526 13.3341 26.7004 13.3241 26.6243C13.3197 26.5902 13.3178 26.5663 13.3176 26.5639C13.3174 26.5619 13.3175 26.5627 13.3188 26.581L15.1884 26.4521ZM6.58122 15.3351L5.67297 13.6958C5.6317 13.7186 5.4213 13.83 5.24158 13.966C5.02072 14.1332 4.5778 14.5312 4.4472 15.2305L6.28944 15.5745L8.13167 15.9186C8.01728 16.5311 7.62839 16.8603 7.50344 16.9548C7.44308 17.0005 7.40116 17.0241 7.41161 17.018C7.42059 17.0127 7.43712 17.0034 7.48948 16.9744L6.58122 15.3351ZM6.47514 15.9031L7.91382 14.7021C7.87546 14.6562 7.86341 14.6415 7.85694 14.6334C7.84942 14.6238 7.87999 14.661 7.91979 14.7254C8.00219 14.8587 8.24607 15.306 8.13167 15.9186L6.28944 15.5745L4.4472 15.2305C4.31661 15.9298 4.58604 16.4608 4.73168 16.6964C4.8502 16.8881 5.00622 17.0679 5.03645 17.1041L6.47514 15.9031ZM50.8544 4.0399L51.6859 5.71942C51.758 5.68371 51.7908 5.66762 51.8139 5.65694C51.84 5.64485 51.8041 5.66319 51.7358 5.68526C51.6733 5.70543 51.487 5.7615 51.2301 5.75738C50.9344 5.75263 50.5981 5.66866 50.2896 5.46072L51.3369 3.90657L52.3841 2.35242C51.6128 1.83262 50.8385 2.03625 50.5838 2.1185C50.3432 2.19622 50.0968 2.32379 50.0228 2.36039L50.8544 4.0399ZM51.3944 4.40384L53.2633 4.544C53.2694 4.46173 53.2952 4.18548 53.2769 3.93324C53.2575 3.66632 53.1555 2.87223 52.3841 2.35242L51.3369 3.90657L50.2896 5.46072C49.981 5.25279 49.7769 4.97263 49.6615 4.70039C49.5612 4.46379 49.5433 4.27008 49.5385 4.20461C49.5333 4.13299 49.5368 4.09279 49.5354 4.12155C49.5342 4.14698 49.5316 4.18344 49.5256 4.26368L51.3944 4.40384ZM32.2727 13.2929L33.8183 14.3527C33.8267 14.3405 33.827 14.3401 33.8259 14.3416C33.8246 14.3434 33.8134 14.3596 33.7962 14.382C33.7581 14.432 33.6796 14.529 33.5603 14.6325L32.332 13.217L31.1038 11.8016C30.9664 11.9208 30.8718 12.0357 30.8155 12.1096C30.7712 12.1676 30.7307 12.2277 30.7271 12.233L32.2727 13.2929ZM32.4155 13.1689L31.584 11.4894C31.5782 11.4923 31.513 11.524 31.4494 11.5596C31.3682 11.605 31.2411 11.6824 31.1038 11.8016L32.332 13.217L33.5603 14.6325C33.4411 14.736 33.334 14.8001 33.2791 14.8308C33.2545 14.8445 33.2369 14.8534 33.2349 14.8545C33.2333 14.8553 33.2337 14.855 33.247 14.8485L32.4155 13.1689ZM23.1667 25.4408L21.3243 25.7836C21.348 25.9112 21.3995 26.2133 21.485 26.4675C21.5468 26.6515 21.8847 27.6309 23.0069 27.8684L23.395 26.0349L23.783 24.2014C24.2425 24.2987 24.5797 24.5596 24.7867 24.8209C24.9586 25.038 25.0242 25.2327 25.0377 25.2728C25.0558 25.3267 25.0585 25.3498 25.0483 25.3015C25.039 25.2575 25.0281 25.1997 25.0092 25.098L23.1667 25.4408ZM23.8443 25.5842L22.2987 24.5244C22.2402 24.6096 22.2069 24.6581 22.1805 24.6945C22.1516 24.7346 22.1635 24.7146 22.2019 24.6727C22.2305 24.6414 22.3693 24.49 22.6144 24.3612C22.9095 24.2061 23.3235 24.1042 23.783 24.2014L23.395 26.0349L23.0069 27.8684C24.1291 28.1059 24.8348 27.3474 24.9659 27.2042C25.147 27.0065 25.3165 26.7511 25.39 26.6441L23.8443 25.5842ZM30.1846 29.7229L31.8526 28.8686C31.8373 28.8387 31.8354 28.8348 31.8357 28.8355C31.8362 28.8364 31.8536 28.8716 31.8743 28.9251C31.9208 29.0449 32.0083 29.3149 31.9799 29.6692L30.1118 29.5195L28.2437 29.3698C28.2111 29.7771 28.3092 30.0987 28.3803 30.2818C28.4357 30.4245 28.5084 30.5613 28.5166 30.5773L30.1846 29.7229ZM30.216 29.3302L28.7054 28.2211C28.6948 28.2355 28.6012 28.3591 28.5238 28.4911C28.4245 28.6606 28.2763 28.9624 28.2437 29.3698L30.1118 29.5195L31.9799 29.6692C31.9515 30.0235 31.8222 30.2761 31.7572 30.3869C31.7281 30.4365 31.7054 30.4685 31.7048 30.4693C31.7044 30.4699 31.7068 30.4664 31.7267 30.4393L30.216 29.3302ZM20.8695 14.1751L20.3021 15.9612C20.3332 15.9711 20.337 15.9724 20.3361 15.9721C20.335 15.9717 20.2984 15.9595 20.2468 15.9372C20.1313 15.8872 19.8846 15.7635 19.6557 15.5044L21.0602 14.2636L22.4647 13.0228C22.2014 12.7248 21.9115 12.5735 21.7353 12.4972C21.598 12.4378 21.4532 12.3941 21.4368 12.3889L20.8695 14.1751ZM21.1245 14.4638L22.967 14.121C22.9638 14.1041 22.9383 13.955 22.8963 13.8114C22.8424 13.6271 22.7279 13.3208 22.4647 13.0228L21.0602 14.2636L19.6557 15.5044C19.4267 15.2452 19.3344 14.9852 19.2991 14.8644C19.2833 14.8104 19.2757 14.7726 19.2754 14.7714C19.2752 14.7705 19.276 14.7744 19.282 14.8065L21.1245 14.4638ZM13.2724 11.7619L13.8398 9.97577C13.829 9.97233 13.7199 9.93628 13.6081 9.9102C13.4649 9.87682 13.2273 9.8356 12.9346 9.86473L13.1202 11.7296L13.3058 13.5945C13.0516 13.6198 12.8521 13.5827 12.7566 13.5604C12.7138 13.5504 12.6847 13.5415 12.6823 13.5408C12.6805 13.5403 12.6822 13.5408 12.7051 13.5481L13.2724 11.7619ZM12.9773 11.7913L13.8856 13.4306C13.9066 13.4189 13.9082 13.4181 13.9065 13.419C13.9043 13.4202 13.8775 13.4346 13.8376 13.4528C13.7482 13.4935 13.56 13.5692 13.3058 13.5945L13.1202 11.7296L12.9346 9.86473C12.6419 9.89385 12.4171 9.9811 12.2834 10.042C12.1789 10.0896 12.079 10.1465 12.0691 10.152L12.9773 11.7913Z" fill="white"/>
</g>
</svg>
